<svg xmlns="http://www.w3.org/2000/svg" viewBox="0 0 800 600">
  <defs>
    <linearGradient id="bg" x1="0%" y1="0%" x2="100%" y2="100%">
      <stop offset="0%" style="stop-color:#1a1625"/>
      <stop offset="100%" style="stop-color:#0d0b14"/>
    </linearGradient>
    <linearGradient id="accent" x1="0%" y1="0%" x2="100%" y2="0%">
      <stop offset="0%" style="stop-color:#8b5cf6"/>
      <stop offset="100%" style="stop-color:#06b6d4"/>
    </linearGradient>
  </defs>
  <rect fill="url(#bg)" width="800" height="600"/>
  <rect x="60" y="60" width="280" height="180" rx="16" fill="#1f1a2e" stroke="#2a2440" stroke-width="1"/>
  <rect x="80" y="80" width="100" height="12" rx="6" fill="url(#accent)"/>
  <rect x="80" y="105" width="200" height="8" rx="4" fill="#3a3450"/>
  <rect x="80" y="120" width="160" height="8" rx="4" fill="#3a3450"/>
  <rect x="80" y="170" width="240" height="50" rx="8" fill="#2a2440"/>
  <rect x="460" y="60" width="280" height="180" rx="16" fill="#1f1a2e" stroke="#2a2440" stroke-width="1"/>
  <circle cx="600" cy="130" r="40" fill="url(#accent)" opacity="0.2"/>
  <rect x="530" y="180" width="140" height="10" rx="5" fill="#3a3450"/>
  <rect x="60" y="280" width="680" height="120" rx="16" fill="#1f1a2e" stroke="#2a2440" stroke-width="1"/>
  <rect x="80" y="300" width="200" height="14" rx="7" fill="url(#accent)"/>
  <rect x="80" y="330" width="620" height="8" rx="4" fill="#3a3450"/>
  <rect x="80" y="345" width="500" height="8" rx="4" fill="#3a3450"/>
  <rect x="80" y="360" width="580" height="8" rx="4" fill="#3a3450"/>
  <circle cx="700" cy="520" r="60" fill="url(#accent)" opacity="0.1"/>
  <text x="400" y="540" font-family="system-ui" font-size="14" fill="#5a5070" text-anchor="middle">Portfolio Project Preview</text>
</svg>
